# xmcd CD database file
#
# Track frame offsets:
#	150
#	29887
#	64122
#	84816
#	105227
#	129045
#	144987
#	166995
#	186139
#	206082
#	218815
#	243756
#	263321
#	282381
#	300612
#	323741
#	345643
#
# Disc length: 4852 seconds
#
# Revision: 0
# Processed by: cddbd v1.5.2PL0 Copyright (c) Steve Scherf et al.
# Submitted via: CDex 1.70beta2
#
DISCID=e412f211
DTITLE=Varios Salsa - CD 1
DYEAR=2005
DGENRE=Salsa
TTITLE0=Orquesta La Palabra - Lady
TTITLE1=George Lamond - Que te vas
TTITLE2=Gilberto Santarosa - Un Monton De Estrellas
TTITLE3=Alejandro Fernandez - Me Dedique A Perderte
TTITLE4=Jay Lozada  - Por Amarte Asi
TTITLE5=Aventura - Cuando Volveras
TTITLE6=Los Adolescentes - Persona ideal
TTITLE7=Miguel Angel - Me Has Vuelto Loco
TTITLE8=Son by Four - A puro Dolor
TTITLE9=Carlos Baute - Te regalo
TTITLE10=Vanessa and Chayanne - Refugio de amor
TTITLE11=Victor Manuelle - Tengo ganas
TTITLE12=Luis Miguel del Amargue - Hoy la vi pasar
TTITLE13=Luis Miguel Del Amargue - Te Echo De Menos
TTITLE14=DLG - La Quiero Morir
TTITLE15=Brenda K Starr - Herida
TTITLE16=Orishas - A Lo Cubano
EXTD=YEAR: 2005
EXTT0=
EXTT1=
EXTT2=
EXTT3=
EXTT4=
EXTT5=
EXTT6=
EXTT7=
EXTT8=
EXTT9=
EXTT10=
EXTT11=
EXTT12=
EXTT13=
EXTT14=
EXTT15=
EXTT16=
PLAYORDER=
